<svg xmlns="http://www.w3.org/2000/svg" width="1080" height="300"><defs><filter id="a" width="1.45" height="1.68" x="-.225" y="-.34" style="color-interpolation-filters:sRGB"><feFlood flood-color="#000" flood-opacity=".498" result="flood"/><feComposite in="flood" in2="SourceGraphic" operator="in" result="composite1"/><feGaussianBlur in="composite1" result="blur" stdDeviation="7"/><feOffset result="offset"/><feComposite in="offset" in2="offset" operator="atop" result="composite2"/></filter><filter id="b" width="1.453" height="1.42" x="-.226" y="-.21" style="color-interpolation-filters:sRGB"><feFlood flood-color="#000" flood-opacity=".498" result="flood"/><feComposite in="flood" in2="SourceGraphic" operator="in" result="composite1"/><feGaussianBlur in="composite1" result="blur" stdDeviation="7"/><feOffset result="offset"/><feComposite in="offset" in2="offset" operator="atop" result="composite2"/></filter></defs><g style="display:inline"><path d="m288.515 911.587 74.39-42.403-.223-147.112-74.227-43.85ZM362.32 712.176l.226-36.896 153.293-.604.335 116.543 73.776 63.246-.571-179.53-55.038-54.384-189.751-.084-49.646 49.71z" style="fill:#f8931f;fill-opacity:1" transform="matrix(.85399 0 0 .85399 -135.85 -490.64)"/><path d="m516.265 868.688-.24-63.149 74.356 62.617z" style="fill:#f8931f;fill-opacity:1" transform="matrix(.85399 0 0 .85399 -135.85 -490.64)"/><path d="m515.743 818.797.113 14.844 61.786 34.597 12.768-.083z" style="fill:#c1771d;fill-opacity:1;filter:url(#a)" transform="matrix(.85399 0 0 .85399 -135.85 -490.64)"/><path d="m288.422 679.812.03 11.413 74.066 68.573.1-14.54z" style="fill:#c1771d;fill-opacity:1;filter:url(#b)" transform="matrix(.85399 0 0 .85399 -135.85 -490.64)"/><path d="M269.488 664.664 453.09 831.41l-5.407-43.86 142.696 80.584-183.374-161.227-3.848 40.19zM917.174 619.956l-53.812 54.5-169.236-.45.03 45.675h184.982l-48.24 49.771H694.332v44.256H907.29l-53.737 54.38H620.58l.017-248.096" style="fill:#fe0000;fill-opacity:1" transform="matrix(.85399 0 0 .85399 -135.85 -490.64)"/><path d="m1175.507 674.32 54.212-54.381-238.864 1.033-55.553 55.377-.557 137.186 56.215 54.376h176.431l53.53-54.032-213.04-.088-.029-139.087z" style="fill:#f8931f;fill-opacity:1" transform="matrix(.85399 0 0 .85399 -135.85 -490.64)"/><path d="m1125.883 738.02 114.972-115.23 4.782 26.316 83.569-61.619-112.772 119.416.797-29.952z" style="fill:#fe0000;fill-opacity:1" transform="matrix(.85399 0 0 .85399 -135.85 -490.64)"/></g></svg>