<svg xmlns="http://www.w3.org/2000/svg" xmlns:xlink="http://www.w3.org/1999/xlink" width="500" height="500"><defs><linearGradient id="a"><stop offset="0" style="stop-color:#f8931f;stop-opacity:1"/><stop offset="1" style="stop-color:#f8c11f;stop-opacity:1"/></linearGradient><linearGradient id="c"><stop offset="0" style="stop-color:#f8931f;stop-opacity:1"/><stop offset="1" style="stop-color:#f8c11f;stop-opacity:1"/></linearGradient><linearGradient id="b"><stop offset="0" style="stop-color:#0b080e;stop-opacity:1"/><stop offset="1" style="stop-color:#0b080e;stop-opacity:0"/></linearGradient><linearGradient xlink:href="#a" id="d" x1="218.325" x2="258.865" y1="463.31" y2="51.537" gradientTransform="matrix(1.14932 0 0 1.14932 -29.99 -45.997)" gradientUnits="userSpaceOnUse"/><linearGradient xlink:href="#b" id="e" x1="204.282" x2="208.994" y1="423.067" y2="423.067" gradientTransform="matrix(1.14932 0 0 1.14932 -29.99 -45.997)" gradientUnits="userSpaceOnUse"/><linearGradient xlink:href="#c" id="f" x1="255.277" x2="218.842" y1="52.212" y2="465.968" gradientTransform="matrix(1.14932 0 0 1.14932 -29.99 -45.997)" gradientUnits="userSpaceOnUse"/></defs><path d="M173.769 46.622C74.102 85.868 21.655 187.652 41.8 287.009c17.957 88.558 78.534 143.368 162.593 165.787l4.407-23.305C137.58 410.335 82.063 360.499 66.287 282.695 48.393 194.446 91.06 114.869 171.212 73.86Zm168.177 4.346-7.836 24.93c78.684 40.404 121.153 118.59 103.241 206.835-17.492 86.18-94.719 146.751-170.914 150.204l-10.335 24.19c106.14-2.624 184.978-73.776 204.877-171.806 20.104-99.035-34.693-193.417-119.033-234.353" style="fill:url(#d);fill-opacity:1;stroke-width:1.14932"/><path d="m210.21 429.466-5.415 21.55" style="fill:url(#e);fill-opacity:1;stroke-width:1.14932"/><path d="m195.314 13.742 142.667.533-75.656 201.612 104.676.552L217.107 491.34l36.396-207.582-102.046 1.453Z" style="fill:url(#f);fill-opacity:1;stroke-width:1.14932"/></svg>