<?xml version="1.0" encoding="UTF-8" standalone="no"?>
<!-- Created with Inkscape (http://www.inkscape.org/) -->

<svg
   version="1.1"
   id="svg2"
   width="740"
   height="740"
   viewBox="0 0 740 740"
   sodipodi:docname="vector-design-eco-house-icon-style_1250006-38958.jpg"
   xmlns:inkscape="http://www.inkscape.org/namespaces/inkscape"
   xmlns:sodipodi="http://sodipodi.sourceforge.net/DTD/sodipodi-0.dtd"
   xmlns:xlink="http://www.w3.org/1999/xlink"
   xmlns="http://www.w3.org/2000/svg"
   xmlns:svg="http://www.w3.org/2000/svg">
  <defs
     id="defs6">
    <linearGradient
       inkscape:collect="always"
       id="linearGradient2391">
      <stop
         style="stop-color:#f8931f;stop-opacity:1;"
         offset="0"
         id="stop2387" />
      <stop
         style="stop-color:#f84c1f;stop-opacity:1;"
         offset="1"
         id="stop2389" />
    </linearGradient>
    <linearGradient
       inkscape:collect="always"
       id="linearGradient1659">
      <stop
         style="stop-color:#f8931f;stop-opacity:1;"
         offset="0"
         id="stop1655" />
      <stop
         style="stop-color:#f84c1f;stop-opacity:1;"
         offset="1"
         id="stop1657" />
    </linearGradient>
    <linearGradient
       inkscape:collect="always"
       id="linearGradient1601">
      <stop
         style="stop-color:#f8931f;stop-opacity:1;"
         offset="0"
         id="stop1597" />
      <stop
         style="stop-color:#f84c1f;stop-opacity:1;"
         offset="1"
         id="stop1599" />
    </linearGradient>
    <linearGradient
       inkscape:collect="always"
       xlink:href="#linearGradient2391"
       id="linearGradient1605"
       x1="336.03455"
       y1="264.41589"
       x2="87.00486"
       y2="79.402458"
       gradientUnits="userSpaceOnUse" />
    <linearGradient
       inkscape:collect="always"
       xlink:href="#linearGradient1601"
       id="linearGradient1607"
       x1="547.38531"
       y1="588.25714"
       x2="199.11833"
       y2="382.83365"
       gradientUnits="userSpaceOnUse" />
    <linearGradient
       inkscape:collect="always"
       xlink:href="#linearGradient1659"
       id="linearGradient1609"
       x1="663.31049"
       y1="620.45941"
       x2="106.75448"
       y2="87.768158"
       gradientUnits="userSpaceOnUse" />
  </defs>
  <sodipodi:namedview
     id="namedview4"
     pagecolor="#ffffff"
     bordercolor="#000000"
     borderopacity="0.25"
     inkscape:showpageshadow="2"
     inkscape:pageopacity="0.0"
     inkscape:pagecheckerboard="0"
     inkscape:deskcolor="#d1d1d1"
     showgrid="false" />
  <g
     inkscape:groupmode="layer"
     inkscape:label="Image"
     id="g8">
    <path
       id="path433"
       style="fill:url(#linearGradient1605);fill-opacity:1"
       inkscape:transform-center-x="-4.0110905"
       inkscape:transform-center-y="-31.342612"
       d="m 166.05479,-43.272834 c -1.1183,9.56e-4 -177.651445,306.368494 -177.091465,307.336494 0.55998,0.96801 354.147295,0.66419 354.705625,-0.30476 0.55832,-0.96896 -176.49585,-307.032689 -177.61416,-307.031734 z m -0.0347,127.953331 a 37.117023,62.637879 0 0 1 37.69415,61.557563 37.117023,62.637879 0 0 1 -36.42477,63.69973 37.117023,62.637879 0 0 1 -37.7966,-61.3788 37.117023,62.637879 0 0 1 36.31711,-63.872632 z m 0.009,21.155103 -0.13719,0.003 a 24.083613,40.642981 0 0 0 -23.56427,41.44277 24.083613,40.642981 0 0 0 24.52456,39.82809 24.083613,40.642981 0 0 0 23.63372,-41.33142 24.083613,40.642981 0 0 0 -24.45682,-39.94237 z"
       transform="matrix(1.1247498,0,0,0.66648751,183.23967,188.0576)" />
    <path
       id="rect600"
       style="fill:url(#linearGradient1607);fill-opacity:1"
       d="m 199.30859,378.61523 v 206.4961 H 450.9668 v -28.87891 h -6.50391 c -4.78114,0 -8.63086,-3.8497 -8.63086,-8.63086 v -25.875 c 0,-0.89865 0.13608,-1.76469 0.38867,-2.57812 -8.99112,-6.67571 -14.79882,-17.37614 -14.79882,-29.48438 v -25.76562 c 0,-0.8433 0.0384,-1.67709 0.0937,-2.50586 h -0.31445 c -6.41171,0 -11.57422,-5.16251 -11.57422,-11.57422 v -14.71094 c 0,-6.07425 4.63488,-11.01896 10.57422,-11.52344 v -20.42773 c 0,-4.22434 3.40069,-7.625 7.625,-7.625 h 18.51172 c 4.22434,0 7.625,3.40066 7.625,7.625 v 20.37695 h 8.76758 v -20.42187 c 0,-4.22434 3.40066,-7.625 7.625,-7.625 h 18.51172 c 4.22431,0 7.625,3.40066 7.625,7.625 v 20.53515 c 5.67568,0.75114 10.03125,5.57354 10.03125,11.46094 v 14.71094 c 0,6.41171 -5.16054,11.57422 -11.57227,11.57422 h -0.23437 c 0.0554,0.82877 0.0937,1.66256 0.0937,2.50586 v 25.76562 c 0,12.0096 -5.71189,22.63409 -14.57813,29.32032 0.28704,0.86161 0.44922,1.78166 0.44922,2.74218 v 25.875 c 0,4.78116 -3.8497,8.63086 -8.63086,8.63086 h -6.79883 v 28.87891 h 78.17578 v -206.4961 z m 234.63282,31.40625 v 13.51368 h 5.9375 v -13.51368 z m 42.59961,0 v 13.51368 h 5.9375 V 410.02148 Z M 319.71484,416.125 c 37.35725,1.80732 70.1897,28.04659 73.23243,71.58789 0.41986,42.71309 -35.55289,75.23238 -71.59375,75.61328 -44.54183,-1.35906 -71.36388,-35.40422 -74.78711,-69.77929 0.12048,-40.87145 27.15281,-73.53816 72.63281,-77.41407 z m -0.4375,14.01758 -0.33593,0.004 c -32.56236,0.69589 -58.41008,27.63198 -57.76172,60.19532 0.64748,32.56533 27.54901,58.45238 60.11523,57.84961 32.56503,-0.60366 58.48893,-27.46736 57.93164,-60.03321 -0.55744,-32.5647 -27.38371,-58.52511 -59.94922,-58.01562 z m 104.63086,7.16015 v 10.05665 h 69.01368 v -10.05665 z m -119.70508,11.47461 c 7.77438,1.83943 14.24879,7.70834 18.8711,14.87305 5.11483,-2.86316 11.70588,-5.05005 19.41016,-4.875 4.95242,0.11253 10.52702,1.56716 16.27343,4.08203 9.33024,17.14567 1.4397,35.85691 -8.29297,46.11719 -5.36484,4.13039 -14.93802,12.848 -39.33398,9.38867 0,0 0.0576,2.9623 0.14062,4.47656 0,3.92885 -3.21178,6.5918 -7.14062,6.5918 h -0.10547 c -3.92884,0 -7.0918,-3.16295 -7.0918,-7.0918 v -3.63867 c -11.3878,-5.69573 -18.16657,-18.37783 -19.49218,-31.68945 -0.89979,-8.57731 3.11951,-29.83336 26.76171,-38.23438 z m 131.12891,10.85352 v 32.92578 h -0.0488 c 0.73238,7.72505 5.62097,12.47611 11.75196,16.99805 7.22989,3.2319 15.1544,3.57347 22.33203,0.38086 5.9519,-3.90112 10.54877,-9.64874 11.38867,-17.3086 h -0.14453 v -32.99609 z m -131.73633,4.14648 c -8.37919,8.39993 -11.89604,14.91544 -11.34765,24.84375 0.21819,3.95031 1.74338,7.37706 4.68554,11.65039 v -14.83789 c 0,-3.92882 3.16296,-7.09179 7.0918,-7.09179 h 0.10547 c 3.92884,0 7.0918,3.16297 7.0918,7.09179 v 14.81446 c 3.14513,-4.55942 4.48206,-7.98268 4.85351,-14.37696 0.056,-8.89497 -3.68343,-15.3474 -12.48047,-22.09375 z m 44.2793,9.23438 c -7.9463,0.25978 -13.20744,0.51661 -18.07812,3.5293 1.02873,3.66424 1.05926,8.14432 1.04296,11.36718 -0.1245,3.71818 -1.74402,10.75767 -5.02148,17.4336 7.36993,-2.06985 10.66803,-2.5943 16.03125,-7.67969 6.1296,-6.44595 7.82032,-13.71063 6.02539,-24.65039 z m 102.31445,53.42578 v 15.06836 h 15.66993 V 526.4375 Z" />
    <path
       id="path768"
       style="fill:url(#linearGradient1609);fill-opacity:1;stroke-width:1.37802"
       d="M 379.96875,9.6796875 A 361.21298,361.21298 0 0 0 14.097656,308.89258 361.21298,361.21298 0 0 0 307.47461,726.51758 361.21298,361.21298 0 0 0 725.62695,433.89453 361.21298,361.21298 0 0 0 433.75586,15.216797 l -2.56055,-0.451172 A 361.21298,361.21298 0 0 0 379.96875,9.6796875 Z m -0.45508,20.2949215 a 341.01309,341.01309 0 0 1 48.36133,4.802735 l 2.41797,0.425781 A 341.01309,341.01309 0 0 1 705.8418,430.4668 341.01309,341.01309 0 0 1 311.07227,706.72656 341.01309,341.01309 0 0 1 34.103516,312.45703 341.01309,341.01309 0 0 1 379.51367,29.974609 Z" />
  </g>
</svg>
