<?xml version="1.0" encoding="UTF-8" standalone="no"?>
<!-- Created with Inkscape (http://www.inkscape.org/) -->

<svg
   version="1.1"
   id="svg2"
   width="740"
   height="740"
   viewBox="0 0 740 740"
   sodipodi:docname="property_maintenance.svg"
   xml:space="preserve"
   xmlns:inkscape="http://www.inkscape.org/namespaces/inkscape"
   xmlns:sodipodi="http://sodipodi.sourceforge.net/DTD/sodipodi-0.dtd"
   xmlns:xlink="http://www.w3.org/1999/xlink"
   xmlns="http://www.w3.org/2000/svg"
   xmlns:svg="http://www.w3.org/2000/svg"><defs
     id="defs6"><linearGradient
       inkscape:collect="always"
       id="linearGradient1346"><stop
         style="stop-color:#f8931f;stop-opacity:1;"
         offset="0"
         id="stop1344" /><stop
         style="stop-color:#f84c1f;stop-opacity:1;"
         offset="1"
         id="stop1342" /></linearGradient><linearGradient
       inkscape:collect="always"
       id="linearGradient1214"><stop
         style="stop-color:#f8931f;stop-opacity:1;"
         offset="0"
         id="stop1210" /><stop
         style="stop-color:#f84c1f;stop-opacity:1;"
         offset="1"
         id="stop1212" /></linearGradient><linearGradient
       inkscape:collect="always"
       id="linearGradient1659"><stop
         style="stop-color:#f8931f;stop-opacity:1;"
         offset="0"
         id="stop1655" /><stop
         style="stop-color:#f84c1f;stop-opacity:1;"
         offset="1"
         id="stop1657" /></linearGradient><linearGradient
       inkscape:collect="always"
       xlink:href="#linearGradient1659"
       id="linearGradient1609"
       x1="663.31049"
       y1="620.45941"
       x2="106.75448"
       y2="87.768158"
       gradientUnits="userSpaceOnUse" /><linearGradient
       inkscape:collect="always"
       xlink:href="#linearGradient1214"
       id="linearGradient1216"
       x1="497.63956"
       y1="587.1192"
       x2="155.56364"
       y2="152.16292"
       gradientUnits="userSpaceOnUse" /><linearGradient
       inkscape:collect="always"
       xlink:href="#linearGradient1346"
       id="linearGradient1348"
       x1="583.72943"
       y1="522.4964"
       x2="425.01608"
       y2="369.08658"
       gradientUnits="userSpaceOnUse" /></defs><sodipodi:namedview
     id="namedview4"
     pagecolor="#ffffff"
     bordercolor="#000000"
     borderopacity="0.25"
     inkscape:showpageshadow="2"
     inkscape:pageopacity="0.0"
     inkscape:pagecheckerboard="0"
     inkscape:deskcolor="#d1d1d1"
     showgrid="false" /><g
     inkscape:groupmode="layer"
     inkscape:label="Image"
     id="g8"><path
       id="path768"
       style="fill:url(#linearGradient1609);fill-opacity:1;stroke-width:1.37802"
       d="M 379.96875,9.6796875 A 361.21298,361.21298 0 0 0 14.097656,308.89258 361.21298,361.21298 0 0 0 307.47461,726.51758 361.21298,361.21298 0 0 0 725.62695,433.89453 361.21298,361.21298 0 0 0 433.75586,15.216797 l -2.56055,-0.451172 A 361.21298,361.21298 0 0 0 379.96875,9.6796875 Z m -0.45508,20.2949215 a 341.01309,341.01309 0 0 1 48.36133,4.802735 l 2.41797,0.425781 A 341.01309,341.01309 0 0 1 705.8418,430.4668 341.01309,341.01309 0 0 1 311.07227,706.72656 341.01309,341.01309 0 0 1 34.103516,312.45703 341.01309,341.01309 0 0 1 379.51367,29.974609 Z" /><path
       id="rect289"
       style="fill:url(#linearGradient1216);fill-opacity:1;stroke-width:0.980997"
       d="m 188.76758,156.3418 c -18.60959,0 -33.5918,14.98025 -33.5918,33.58984 v 362.07422 c 0,18.60959 14.98221,33.5918 33.5918,33.5918 h 275.0293 c 18.60958,0 33.59179,-14.98221 33.59179,-33.5918 v -13.44531 a 94.047882,94.047882 0 0 1 -88.58789,-93.22461 94.047882,94.047882 0 0 1 88.58789,-93.80469 V 189.93164 c 0,-18.60959 -14.98221,-33.58984 -33.59179,-33.58984 z m -5.33985,28.51953 h 97.85938 c 4.25146,0 7.67383,3.42237 7.67383,7.67383 v 86.98242 c 0,4.25141 -3.42237,7.67383 -7.67383,7.67383 h -97.85938 c -4.2514,0 -7.67382,-3.42242 -7.67382,-7.67383 v -86.98242 c 0,-4.25146 3.42242,-7.67383 7.67382,-7.67383 z m 131.50391,13.85156 h 134.61133 c 3.92628,0 7.08594,3.16161 7.08594,7.08789 0,3.92631 -3.15966,7.08594 -7.08594,7.08594 H 314.93164 c -3.92631,0 -7.08789,-3.15963 -7.08789,-7.08594 0,-3.92628 3.16158,-7.08789 7.08789,-7.08789 z m -123.76367,0.88281 c -0.38183,0 -0.68945,0.30568 -0.68945,0.6875 v 71.95508 c 0,0.38183 0.30762,0.68945 0.68945,0.68945 h 82.78515 c 0.38183,0 0.6875,-0.30762 0.6875,-0.68945 V 200.2832 c 0,-0.38182 -0.30567,-0.6875 -0.6875,-0.6875 z m 69.46875,8.70118 c 1.67423,0.003 3.34798,0.64545 4.6289,1.92578 2.56186,2.56065 2.55598,6.6776 -0.0137,9.23046 l -41.3457,41.07422 c -2.56965,2.55286 -6.69983,2.547 -9.26172,-0.0137 -0.0702,-0.0702 -0.13096,-0.14635 -0.19726,-0.21875 L 200.94336,246.8457 c -2.5664,-2.55605 -2.57559,-6.67966 -0.0195,-9.24609 2.55606,-2.56641 6.67966,-2.57559 9.24609,-0.0195 l 9.12891,9.0918 36.70312,-36.4629 c 1.28481,-1.27643 2.96054,-1.9151 4.63477,-1.9121 z m 54.29492,50.41601 h 134.61133 c 3.92628,0 7.08594,3.16161 7.08594,7.08789 0,3.92631 -3.15966,7.08594 -7.08594,7.08594 H 314.93164 c -3.92631,0 -7.08789,-3.15963 -7.08789,-7.08594 0,-3.92628 3.16158,-7.08789 7.08789,-7.08789 z m -131.50391,60.14844 h 97.85938 c 4.25146,0 7.67383,3.42237 7.67383,7.67383 v 86.98242 c 0,4.25141 -3.42237,7.67383 -7.67383,7.67383 h -97.85938 c -4.2514,0 -7.67382,-3.42242 -7.67382,-7.67383 v -86.98242 c 0,-4.25146 3.42242,-7.67383 7.67382,-7.67383 z m 131.50391,13.85156 h 134.61133 c 3.92628,0 7.08594,3.16161 7.08594,7.08789 0,3.92631 -3.15966,7.08594 -7.08594,7.08594 H 314.93164 c -3.92631,0 -7.08789,-3.15963 -7.08789,-7.08594 0,-3.92628 3.16158,-7.08789 7.08789,-7.08789 z m -123.76367,0.88281 c -0.38183,0 -0.68945,0.30568 -0.68945,0.6875 v 71.95508 c 0,0.38183 0.30762,0.68945 0.68945,0.68945 h 82.78515 c 0.38183,0 0.6875,-0.30762 0.6875,-0.68945 V 334.2832 c 0,-0.38182 -0.30567,-0.6875 -0.6875,-0.6875 z m 69.46875,10.70118 c 1.67422,0.003 3.34798,0.64545 4.6289,1.92578 2.56189,2.56065 2.55597,6.6776 -0.0137,9.23046 l -41.3457,41.07422 c -2.56965,2.55289 -6.69984,2.547 -9.26172,-0.0137 -0.0702,-0.0701 -0.13093,-0.14633 -0.19726,-0.21875 L 200.94336,382.8457 c -2.56643,-2.55605 -2.57558,-6.67966 -0.0195,-9.24609 2.55606,-2.56644 6.67967,-2.57558 9.24609,-0.0195 l 9.12891,9.0918 36.70312,-36.4629 c 1.28482,-1.27643 2.96054,-1.91465 4.63477,-1.9121 z m 54.29492,50.41601 h 77.30274 c 3.92627,0 7.08789,3.16161 7.08789,7.08789 0,3.92631 -3.16162,7.08594 -7.08789,7.08594 h -77.30274 c -3.92631,0 -7.08789,-3.15963 -7.08789,-7.08594 0,-3.92628 3.16158,-7.08789 7.08789,-7.08789 z m -131.50391,60.14844 h 97.85938 c 4.25146,0 7.67383,3.42237 7.67383,7.67383 v 86.98242 c 0,4.25141 -3.42237,7.67383 -7.67383,7.67383 h -97.85938 c -4.2514,0 -7.67382,-3.42242 -7.67382,-7.67383 v -86.98242 c 0,-4.25146 3.42242,-7.67383 7.67382,-7.67383 z m 131.50391,13.85156 h 77.30274 c 3.92627,0 7.08789,3.16161 7.08789,7.08789 0,3.92631 -3.16162,7.08594 -7.08789,7.08594 h -77.30274 c -3.92631,0 -7.08789,-3.15963 -7.08789,-7.08594 0,-3.92628 3.16158,-7.08789 7.08789,-7.08789 z m -123.76367,0.88281 c -0.38183,0 -0.68945,0.30568 -0.68945,0.6875 v 71.95508 c 0,0.38183 0.30762,0.68945 0.68945,0.68945 h 82.78515 c 0.38183,0 0.6875,-0.30762 0.6875,-0.68945 V 470.2832 c 0,-0.38182 -0.30567,-0.6875 -0.6875,-0.6875 z m 69.46875,8.70118 c 1.67422,0.003 3.34798,0.64545 4.6289,1.92578 2.56187,2.56065 2.55597,6.6776 -0.0137,9.23046 l -41.3457,41.07422 c -2.56966,2.55286 -6.69984,2.547 -9.26172,-0.0137 -0.0702,-0.0701 -0.13097,-0.14635 -0.19726,-0.21875 L 200.94336,516.8457 c -2.56639,-2.55606 -2.57558,-6.67965 -0.0195,-9.24609 2.55606,-2.5664 6.67965,-2.57558 9.24609,-0.0195 l 9.12891,9.0918 36.70312,-36.4629 c 1.28481,-1.27643 2.96054,-1.91511 4.63477,-1.9121 z m 54.29492,50.41601 h 134.61133 c 3.92628,0 7.08594,3.16161 7.08594,7.08789 0,3.92631 -3.15966,7.08594 -7.08594,7.08594 H 314.93164 c -3.92631,0 -7.08789,-3.15963 -7.08789,-7.08594 0,-3.92628 3.16158,-7.08789 7.08789,-7.08789 z" /><path
       id="path496"
       style="fill:url(#linearGradient1348);fill-opacity:1;stroke-width:1.10742"
       d="m 504.09375,363.49609 a 81.383095,81.383095 0 0 0 -81.05469,81.62305 81.383095,81.383095 0 0 0 81.53516,81.14258 81.383095,81.383095 0 0 0 81.23047,-81.44727 81.383095,81.383095 0 0 0 -81.35742,-81.31836 z m -21.74414,21.58203 c 9.6889,0.10414 19.41794,3.9199 26.92187,11.42383 l 43.54297,43.54493 c 15.00786,15.00785 15.26485,38.91484 0.57617,53.60351 -14.68867,14.68868 -38.59565,14.43169 -53.60351,-0.57617 l -43.54492,-43.54297 c -15.00786,-15.00786 -15.26485,-38.91679 -0.57617,-53.60547 7.34433,-7.34434 16.99469,-10.95179 26.68359,-10.84766 z m -0.38086,12.82813 c -6.03301,-10e-6 -12.06666,2.31275 -16.68945,6.93555 l -0.38672,0.38476 c -9.2456,9.2456 -9.2456,24.13331 0,33.37891 l 18.0332,18.0332 c 0.46924,-0.8584 1.07062,-1.68129 1.81836,-2.42773 l 29.52344,-29.47266 c 0.77036,-0.76902 1.6223,-1.38433 2.50976,-1.85742 -0.17893,-0.15328 -0.35695,-0.30963 -0.53906,-0.45703 L 498.65625,404.8418 c -4.62281,-4.62282 -10.65451,-6.93556 -16.6875,-6.93555 z m 44.55078,34.60742 c -0.47977,0.91649 -1.11201,1.79505 -1.90625,2.58789 l -29.52344,29.47266 c -0.70858,0.70734 -1.48638,1.28299 -2.29687,1.74023 l 17.54297,17.54297 c 9.24558,9.24558 24.13136,9.2456 33.37695,0 l 0.38672,-0.38672 c 9.24559,-9.24559 9.24558,-24.13137 0,-33.37695 z" /></g></svg>
