<?xml version="1.0" encoding="UTF-8" standalone="no"?>
<!-- Created with Inkscape (http://www.inkscape.org/) -->

<svg
   version="1.1"
   id="svg2"
   width="740"
   height="740"
   viewBox="0 0 740 740"
   sodipodi:docname="property_maintenance.svg"
   xml:space="preserve"
   inkscape:export-filename="safety_check.svg"
   inkscape:export-xdpi="96"
   inkscape:export-ydpi="96"
   xmlns:inkscape="http://www.inkscape.org/namespaces/inkscape"
   xmlns:sodipodi="http://sodipodi.sourceforge.net/DTD/sodipodi-0.dtd"
   xmlns:xlink="http://www.w3.org/1999/xlink"
   xmlns="http://www.w3.org/2000/svg"
   xmlns:svg="http://www.w3.org/2000/svg"><defs
     id="defs6"><linearGradient
       inkscape:collect="always"
       id="linearGradient2265"><stop
         style="stop-color:#f8931f;stop-opacity:1;"
         offset="0"
         id="stop2261" /><stop
         style="stop-color:#f84c1f;stop-opacity:1;"
         offset="1"
         id="stop2263" /></linearGradient><linearGradient
       inkscape:collect="always"
       id="linearGradient2257"><stop
         style="stop-color:#f8931f;stop-opacity:1;"
         offset="0"
         id="stop2253" /><stop
         style="stop-color:#f84c1f;stop-opacity:1;"
         offset="1"
         id="stop2255" /></linearGradient><linearGradient
       inkscape:collect="always"
       id="linearGradient2249"><stop
         style="stop-color:#f8931f;stop-opacity:1;"
         offset="0"
         id="stop2245" /><stop
         style="stop-color:#f84c1f;stop-opacity:1;"
         offset="1"
         id="stop2247" /></linearGradient><linearGradient
       inkscape:collect="always"
       id="linearGradient2237"><stop
         style="stop-color:#f8931f;stop-opacity:1;"
         offset="0"
         id="stop2233" /><stop
         style="stop-color:#f84c1f;stop-opacity:1;"
         offset="1"
         id="stop2235" /></linearGradient><linearGradient
       inkscape:collect="always"
       id="linearGradient1659"><stop
         style="stop-color:#f8931f;stop-opacity:1;"
         offset="0"
         id="stop1655" /><stop
         style="stop-color:#f84c1f;stop-opacity:1;"
         offset="1"
         id="stop1657" /></linearGradient><linearGradient
       inkscape:collect="always"
       xlink:href="#linearGradient1659"
       id="linearGradient1609"
       x1="663.31049"
       y1="620.45941"
       x2="106.75448"
       y2="87.768158"
       gradientUnits="userSpaceOnUse" /><linearGradient
       inkscape:collect="always"
       xlink:href="#linearGradient2237"
       id="linearGradient2239"
       x1="152.90488"
       y1="173.92787"
       x2="295.86761"
       y2="298.59109"
       gradientUnits="userSpaceOnUse" /><linearGradient
       inkscape:collect="always"
       xlink:href="#linearGradient2237"
       id="linearGradient2241"
       gradientUnits="userSpaceOnUse"
       x1="296.73358"
       y1="304.96945"
       x2="198.81468"
       y2="209.16739" /><linearGradient
       inkscape:collect="always"
       xlink:href="#linearGradient2249"
       id="linearGradient2251"
       x1="429.03671"
       y1="405.21109"
       x2="212.82314"
       y2="220.37048"
       gradientUnits="userSpaceOnUse"
       gradientTransform="matrix(1.6488904,0,0,0.99236671,-152.69956,36.194577)" /><linearGradient
       inkscape:collect="always"
       xlink:href="#linearGradient2257"
       id="linearGradient2259"
       x1="579.27521"
       y1="356.80161"
       x2="386.93262"
       y2="226.15541"
       gradientUnits="userSpaceOnUse"
       gradientTransform="matrix(1.1922426,0,0,1.1922426,-56.694807,-44.590772)" /><linearGradient
       inkscape:collect="always"
       xlink:href="#linearGradient2265"
       id="linearGradient2267"
       x1="493.2435"
       y1="569.22021"
       x2="229.22281"
       y2="424.74457"
       gradientUnits="userSpaceOnUse"
       gradientTransform="matrix(1.1922426,0,0,1.1922426,-56.694807,-44.590772)" /><linearGradient
       inkscape:collect="always"
       xlink:href="#linearGradient2237"
       id="linearGradient2269"
       gradientUnits="userSpaceOnUse"
       x1="152.90488"
       y1="173.92787"
       x2="295.86761"
       y2="298.59109" /><linearGradient
       inkscape:collect="always"
       xlink:href="#linearGradient2237"
       id="linearGradient2271"
       gradientUnits="userSpaceOnUse"
       x1="152.90488"
       y1="173.92787"
       x2="295.86761"
       y2="298.59109" /><linearGradient
       inkscape:collect="always"
       xlink:href="#linearGradient2237"
       id="linearGradient2273"
       gradientUnits="userSpaceOnUse"
       x1="152.90488"
       y1="173.92787"
       x2="295.86761"
       y2="298.59109" /><linearGradient
       inkscape:collect="always"
       xlink:href="#linearGradient2237"
       id="linearGradient2275"
       gradientUnits="userSpaceOnUse"
       x1="152.90488"
       y1="173.92787"
       x2="295.86761"
       y2="298.59109" /><linearGradient
       inkscape:collect="always"
       xlink:href="#linearGradient2237"
       id="linearGradient2277"
       gradientUnits="userSpaceOnUse"
       x1="152.90488"
       y1="173.92787"
       x2="295.86761"
       y2="298.59109" /><linearGradient
       inkscape:collect="always"
       xlink:href="#linearGradient2237"
       id="linearGradient2279"
       gradientUnits="userSpaceOnUse"
       x1="152.90488"
       y1="173.92787"
       x2="295.86761"
       y2="298.59109" /><linearGradient
       inkscape:collect="always"
       xlink:href="#linearGradient2237"
       id="linearGradient2281"
       gradientUnits="userSpaceOnUse"
       x1="152.90488"
       y1="173.92787"
       x2="295.86761"
       y2="298.59109" /><linearGradient
       inkscape:collect="always"
       xlink:href="#linearGradient2237"
       id="linearGradient2283"
       gradientUnits="userSpaceOnUse"
       x1="152.90488"
       y1="173.92787"
       x2="295.86761"
       y2="298.59109" /><linearGradient
       inkscape:collect="always"
       xlink:href="#linearGradient2237"
       id="linearGradient2285"
       gradientUnits="userSpaceOnUse"
       x1="152.90488"
       y1="173.92787"
       x2="295.86761"
       y2="298.59109" /><linearGradient
       inkscape:collect="always"
       xlink:href="#linearGradient2237"
       id="linearGradient2287"
       gradientUnits="userSpaceOnUse"
       x1="152.90488"
       y1="173.92787"
       x2="295.86761"
       y2="298.59109" /><linearGradient
       inkscape:collect="always"
       xlink:href="#linearGradient2237"
       id="linearGradient2289"
       gradientUnits="userSpaceOnUse"
       x1="152.90488"
       y1="173.92787"
       x2="295.86761"
       y2="298.59109" /><linearGradient
       inkscape:collect="always"
       xlink:href="#linearGradient2237"
       id="linearGradient2291"
       gradientUnits="userSpaceOnUse"
       x1="152.90488"
       y1="173.92787"
       x2="295.86761"
       y2="298.59109" /><linearGradient
       inkscape:collect="always"
       xlink:href="#linearGradient2237"
       id="linearGradient2293"
       gradientUnits="userSpaceOnUse"
       x1="152.90488"
       y1="173.92787"
       x2="295.86761"
       y2="298.59109" /><linearGradient
       inkscape:collect="always"
       xlink:href="#linearGradient2237"
       id="linearGradient2295"
       gradientUnits="userSpaceOnUse"
       x1="152.90488"
       y1="173.92787"
       x2="295.86761"
       y2="298.59109" /><linearGradient
       inkscape:collect="always"
       xlink:href="#linearGradient2237"
       id="linearGradient2297"
       gradientUnits="userSpaceOnUse"
       x1="152.90488"
       y1="173.92787"
       x2="295.86761"
       y2="298.59109" /><linearGradient
       inkscape:collect="always"
       xlink:href="#linearGradient2237"
       id="linearGradient2299"
       gradientUnits="userSpaceOnUse"
       x1="152.90488"
       y1="173.92787"
       x2="295.86761"
       y2="298.59109" /></defs><sodipodi:namedview
     id="namedview4"
     pagecolor="#ffffff"
     bordercolor="#000000"
     borderopacity="0.25"
     inkscape:showpageshadow="2"
     inkscape:pageopacity="0.0"
     inkscape:pagecheckerboard="0"
     inkscape:deskcolor="#d1d1d1"
     showgrid="false" /><g
     inkscape:groupmode="layer"
     inkscape:label="Image"
     id="g8"><path
       id="path768"
       style="fill:url(#linearGradient1609);fill-opacity:1;stroke-width:1.37802"
       d="M 379.96875,9.6796875 A 361.21298,361.21298 0 0 0 14.097656,308.89258 361.21298,361.21298 0 0 0 307.47461,726.51758 361.21298,361.21298 0 0 0 725.62695,433.89453 361.21298,361.21298 0 0 0 433.75586,15.216797 l -2.56055,-0.451172 A 361.21298,361.21298 0 0 0 379.96875,9.6796875 Z m -0.45508,20.2949215 a 341.01309,341.01309 0 0 1 48.36133,4.802735 l 2.41797,0.425781 A 341.01309,341.01309 0 0 1 705.8418,430.4668 341.01309,341.01309 0 0 1 311.07227,706.72656 341.01309,341.01309 0 0 1 34.103516,312.45703 341.01309,341.01309 0 0 1 379.51367,29.974609 Z" /><path
       id="path1544"
       style="fill:url(#linearGradient2251);fill-opacity:1;stroke-width:1.27918"
       inkscape:transform-center-x="1.7211935e-05"
       inkscape:transform-center-y="-31.338949"
       d="M 374.34278,253.24399 193.96021,441.27834 h 360.76514 l -37.10388,-38.67803 h -122.3795 c -8.89608,0 -14.43525,-6.97621 -12.42076,-15.6412 L 406.1887,286.44048 Z" /><rect
       style="fill:url(#linearGradient2267);fill-opacity:1;stroke-width:1.19693"
       id="rect1551"
       width="311.66846"
       height="186.21753"
       x="219.50967"
       y="456.5108"
       ry="0" /><path
       id="path1610"
       style="display:inline;fill:url(#linearGradient2259);fill-opacity:1;stroke-width:1.19787"
       d="m 436.88662,227.34997 -33.63195,155.66916 h 233.49326 l -31.967,-155.66916 z m 14.51416,11.11674 h 137.61785 c 4.81414,0 7.72315,3.97202 8.69033,8.68799 l 24.10799,117.55465 c 0.96718,4.71601 -3.8762,8.69034 -8.69033,8.69034 H 426.55696 c -4.81414,0 -9.68572,-3.98022 -8.69032,-8.69034 L 442.71045,247.1547 c 0.99539,-4.71009 3.87619,-8.68799 8.69033,-8.68799 z m 8.19668,16.33046 -3.19718,13.40807 h 16.94986 v -13.40807 z m 31.37786,0 v 13.40807 h 20.52657 v -13.40807 z m 38.15176,0 v 13.40807 h 20.52658 v -13.40807 z m 38.15176,0 v 13.40807 h 17.23629 l -3.03883,-13.40807 z m -115.08402,31.03323 -2.622,10.98866 h 23.77732 V 285.8304 Z m 38.7805,0 v 10.98866 h 20.52657 V 285.8304 Z m 38.15176,0 v 10.98866 h 20.52658 V 285.8304 Z m 38.15176,0 v 10.98866 h 23.72609 l -2.4916,-10.98866 z m -121.90913,28.61383 -2.62201,10.98865 h 30.60244 v -10.98865 z m 45.60561,0 v 10.98865 h 20.52657 v -10.98865 z m 38.15176,0 v 10.98865 h 20.52658 v -10.98865 z m 38.15176,0 v 10.98865 h 30.21355 l -2.49159,-10.98865 z m -128.73426,28.61381 -3.36249,14.09501 h 38.16805 v -14.09501 z m 52.43074,0 v 14.09501 h 20.52657 v -14.09501 z m 38.15176,0 v 14.09501 h 20.52658 v -14.09501 z m 38.15176,0 v 14.09501 h 37.40428 l -3.19484,-14.09501 z" /><g
       id="g1728"
       style="mix-blend-mode:normal;fill:url(#linearGradient2239);fill-opacity:1"
       transform="matrix(1.1922426,0,0,1.1922426,-56.694805,-44.59077)"><path
         style="fill:url(#linearGradient2241);fill-opacity:1;stroke-width:0.735723"
         id="path1671"
         sodipodi:type="arc"
         sodipodi:cx="222.79631"
         sodipodi:cy="235.84567"
         sodipodi:rx="30.857414"
         sodipodi:ry="30.857414"
         sodipodi:start="4.7126859"
         sodipodi:end="4.7083491"
         sodipodi:open="true"
         sodipodi:arc-type="arc"
         d="m 222.80547,204.98826 a 30.857414,30.857414 0 0 1 30.84825,30.83312 30.857414,30.857414 0 0 1 -30.79966,30.88165 30.857414,30.857414 0 0 1 -30.91503,-30.76615 30.857414,30.857414 0 0 1 30.73262,-30.94837" /><rect
         style="fill:url(#linearGradient2269);fill-opacity:1"
         id="rect1673"
         width="7.2950368"
         height="45.762707"
         x="218.79764"
         y="153.35516"
         ry="3.6475184" /><rect
         style="fill:url(#linearGradient2271);fill-opacity:1"
         id="rect1679"
         width="7.2950368"
         height="45.762707"
         x="322.10364"
         y="-72.526367"
         ry="3.6475184"
         transform="rotate(45)" /><rect
         style="fill:url(#linearGradient2273);fill-opacity:1"
         id="rect1681"
         width="7.2950368"
         height="45.762707"
         x="230.58904"
         y="-305.32654"
         ry="3.6475184"
         transform="rotate(90)" /><rect
         style="fill:url(#linearGradient2275);fill-opacity:1"
         id="rect1685"
         width="7.2950368"
         height="45.762707"
         x="218.79764"
         y="271.35516"
         ry="3.6475184" /><rect
         style="fill:url(#linearGradient2277);fill-opacity:1"
         id="rect1687"
         width="7.2950368"
         height="45.762707"
         x="230.58904"
         y="-185.32654"
         ry="3.6475184"
         transform="rotate(90)" /><rect
         style="fill:url(#linearGradient2279);fill-opacity:1"
         id="rect1689"
         width="7.2950368"
         height="45.762707"
         x="315.03256"
         y="44.853405"
         ry="3.6475184"
         transform="rotate(45)" /><rect
         style="fill:url(#linearGradient2281);fill-opacity:1"
         id="rect1691"
         width="7.2950368"
         height="45.762707"
         x="3.2760253"
         y="-406.6153"
         ry="3.6475184"
         transform="rotate(135)" /><rect
         style="fill:url(#linearGradient2283);fill-opacity:1"
         id="rect1693"
         width="7.2950368"
         height="45.762707"
         x="6.1044531"
         y="-287.82123"
         ry="3.6475184"
         transform="rotate(135)" /><rect
         style="fill:url(#linearGradient2285);fill-opacity:1;stroke-width:0.755793"
         id="rect1695"
         width="7.2950368"
         height="26.140722"
         x="293.37274"
         y="69.959343"
         ry="3.6475184"
         transform="rotate(22.5)" /><rect
         style="fill:url(#linearGradient2287);fill-opacity:1;stroke-width:0.755793"
         id="rect1697"
         width="7.2950368"
         height="26.140722"
         x="299.6171"
         y="-178.02682"
         ry="3.6475184"
         transform="rotate(67.5)" /><rect
         style="fill:url(#linearGradient2289);fill-opacity:1;stroke-width:0.755793"
         id="rect1699"
         width="7.2950368"
         height="26.140722"
         x="128.01421"
         y="-358.44177"
         ry="3.6475184"
         transform="rotate(112.5)" /><rect
         style="fill:url(#linearGradient2291);fill-opacity:1;stroke-width:0.755793"
         id="rect1701"
         width="7.2950368"
         height="26.140722"
         x="-121.32276"
         y="-364.52039"
         ry="3.6475184"
         transform="rotate(157.5)" /><rect
         style="fill:url(#linearGradient2293);fill-opacity:1;stroke-width:0.755793"
         id="rect1703"
         width="7.2950368"
         height="26.140722"
         x="-296.50656"
         y="-194.68813"
         ry="3.6475184"
         transform="rotate(-157.5)" /><rect
         style="fill:url(#linearGradient2295);fill-opacity:1;stroke-width:0.755793"
         id="rect1705"
         width="7.2950368"
         height="26.140722"
         x="-302.97766"
         y="51.620689"
         ry="3.6475184"
         transform="rotate(-112.5)" /><rect
         style="fill:url(#linearGradient2297);fill-opacity:1;stroke-width:0.755793"
         id="rect1707"
         width="7.2950368"
         height="26.140722"
         x="-136.39977"
         y="230.08295"
         ry="3.6475184"
         transform="rotate(-67.5)" /><rect
         style="fill:url(#linearGradient2299);fill-opacity:1;stroke-width:0.755793"
         id="rect1709"
         width="7.2950368"
         height="26.140722"
         x="111.8415"
         y="239.00174"
         ry="3.6475184"
         transform="rotate(-22.5)" /></g></g></svg>
